HIERARCHY
ROOT hip
{
  OFFSET 0 0 0
  CHANNELS 6 Xposition Yposition Zposition Zrotation Yrotation Xrotation
  JOINT abdomen
  {
    OFFSET 0 20.6881 -0.73152
    CHANNELS 3 Zrotation Xrotation Yrotation
    JOINT chest
    {
      OFFSET 0 11.7043 -0.48768
      CHANNELS 3 Zrotation Xrotation Yrotation
      JOINT neck
      {
        OFFSET 0 22.1894 -2.19456
        CHANNELS 3 Zrotation Xrotation Yrotation
        JOINT head
        {
          OFFSET -0.24384 7.07133 1.2192
          CHANNELS 3 Zrotation Xrotation Yrotation
          JOINT leftEye
          {
            OFFSET 4.14528 8.04674 8.04672
            CHANNELS 3 Zrotation Xrotation Yrotation
            End Site
            {
              OFFSET 1 0 0
            }
          }
          JOINT rightEye
          {
            OFFSET -3.6576 8.04674 8.04672
            CHANNELS 3 Zrotation Xrotation Yrotation
            End Site
            {
              OFFSET 1 0 0
            }
          }
        }
      }
      JOINT rCollar
      {
        OFFSET -2.68224 19.2634 -4.8768
        CHANNELS 3 Zrotation Xrotation Yrotation
        JOINT rShldr
        {
          OFFSET -8.77824 -1.95073 1.46304
          CHANNELS 3 Zrotation Xrotation Yrotation
          JOINT rForeArm
          {
            OFFSET -28.1742 -1.7115 0.48768
            CHANNELS 3 Zrotation Xrotation Yrotation
            JOINT rHand
            {
              OFFSET -22.5879 0.773209 7.07136
              CHANNELS 3 Zrotation Xrotation Yrotation
              JOINT rThumb1
              {
                OFFSET -1.2192 -0.487915 3.41376
                CHANNELS 3 Zrotation Xrotation Yrotation
                JOINT rThumb2
                {
                  OFFSET -3.37035 -0.52449 3.41376
                  CHANNELS 3 Zrotation Xrotation Yrotation
                  End Site
                  {
                    OFFSET -1.78271 -1.18214 1.43049
                  }
                }
              }
              JOINT rIndex1
              {
                OFFSET -7.75947 0.938293 5.60832
                CHANNELS 3 Zrotation Xrotation Yrotation
                JOINT rIndex2
                {
                  OFFSET -2.54057 -0.884171 1.56538
                  CHANNELS 3 Zrotation Xrotation Yrotation
                  End Site
                  {
                    OFFSET -1.62519 -0.234802 1.16502
                  }
                }
              }
              JOINT rMid1
              {
                OFFSET -8.24714 1.18213 3.41376
                CHANNELS 3 Zrotation Xrotation Yrotation
                JOINT rMid2
                {
                  OFFSET -3.10165 -0.590103 1.0647
                  CHANNELS 3 Zrotation Xrotation Yrotation
                  End Site
                  {
                    OFFSET -2.48547 -0.328903 0.83742
                  }
                }
              }
              JOINT rRing1
              {
                OFFSET -8.82822 0.546677 1.51678
                CHANNELS 3 Zrotation Xrotation Yrotation
                JOINT rRing2
                {
                  OFFSET -2.60934 -0.819778 -0.0198488
                  CHANNELS 3 Zrotation Xrotation Yrotation
                  End Site
                  {
                    OFFSET -2.33842 -0.294052 0.168128
                  }
                }
              }
              JOINT rPinky1
              {
                OFFSET -8.27202 -0.0477905 -0.4584
                CHANNELS 3 Zrotation Xrotation Yrotation
                JOINT rPinky2
                {
                  OFFSET -1.82734 -0.647385 -0.700984
                  CHANNELS 3 Zrotation Xrotation Yrotation
                  End Site
                  {
                    OFFSET -1.69225 -0.51767 -0.607171
                  }
                }
              }
            }
          }
        }
      }
      JOINT lCollar
      {
        OFFSET 2.68224 19.2634 -4.8768
        CHANNELS 3 Zrotation Xrotation Yrotation
        JOINT lShldr
        {
          OFFSET 8.77824 -1.95073 1.46304
          CHANNELS 3 Zrotation Xrotation Yrotation
          JOINT lForeArm
          {
            OFFSET 28.1742 -1.7115 0.48768
            CHANNELS 3 Zrotation Xrotation Yrotation
            JOINT lHand
            {
              OFFSET 22.5879 0.773209 7.07136
              CHANNELS 3 Zrotation Xrotation Yrotation
              JOINT lThumb1
              {
                OFFSET 1.2192 -0.487915 3.41376
                CHANNELS 3 Zrotation Xrotation Yrotation
                JOINT lThumb2
                {
                  OFFSET 3.37035 -0.52449 3.41376
                  CHANNELS 3 Zrotation Xrotation Yrotation
                  End Site
                  {
                    OFFSET 1.78271 -1.18214 1.43049
                  }
                }
              }
              JOINT lIndex1
              {
                OFFSET 7.75947 0.938293 5.60832
                CHANNELS 3 Zrotation Xrotation Yrotation
                JOINT lIndex2
                {
                  OFFSET 2.54057 -0.884171 1.56538
                  CHANNELS 3 Zrotation Xrotation Yrotation
                  End Site
                  {
                    OFFSET 1.62519 -0.234802 1.16502
                  }
                }
              }
              JOINT lMid1
              {
                OFFSET 8.24714 1.18213 3.41376
                CHANNELS 3 Zrotation Xrotation Yrotation
                JOINT lMid2
                {
                  OFFSET 3.10165 -0.590103 1.0647
                  CHANNELS 3 Zrotation Xrotation Yrotation
                  End Site
                  {
                    OFFSET 2.48547 -0.328903 0.83742
                  }
                }
              }
              JOINT lRing1
              {
                OFFSET 8.82822 0.546677 1.51678
                CHANNELS 3 Zrotation Xrotation Yrotation
                JOINT lRing2
                {
                  OFFSET 2.60934 -0.819778 -0.0198488
                  CHANNELS 3 Zrotation Xrotation Yrotation
                  End Site
                  {
                    OFFSET 2.33842 -0.294052 0.168128
                  }
                }
              }
              JOINT lPinky1
              {
                OFFSET 8.27202 -0.0477905 -0.4584
                CHANNELS 3 Zrotation Xrotation Yrotation
                JOINT lPinky2
                {
                  OFFSET 1.82734 -0.647385 -0.700984
                  CHANNELS 3 Zrotation Xrotation Yrotation
                  End Site
                  {
                    OFFSET 1.69225 -0.51767 -0.607171
                  }
                }
              }
            }
          }
        }
      }
    }
  }
  JOINT rButtock
  {
    OFFSET -8.77824 4.35084 1.2192
    CHANNELS 3 Zrotation Xrotation Yrotation
    JOINT rThigh
    {
      OFFSET 0 -1.70687 -2.19456
      CHANNELS 3 Zrotation Xrotation Yrotation
      JOINT rShin
      {
        OFFSET 0 -36.8199 0.73152
        CHANNELS 3 Zrotation Xrotation Yrotation
        JOINT rFoot
        {
          OFFSET 0.73152 -45.1104 -5.12064
          CHANNELS 3 Zrotation Xrotation Yrotation
          End Site
          {
            OFFSET -1.1221 -3.69964 12.103
          }
        }
      }
    }
  }
  JOINT lButtock
  {
    OFFSET 8.77824 4.35084 1.2192
    CHANNELS 3 Zrotation Xrotation Yrotation
    JOINT lThigh
    {
      OFFSET 0 -1.70687 -2.19456
      CHANNELS 3 Zrotation Xrotation Yrotation
      JOINT lShin
      {
        OFFSET 0 -36.8199 0.73152
        CHANNELS 3 Zrotation Xrotation Yrotation
        JOINT lFoot
        {
          OFFSET -0.73152 -45.1104 -5.12064
          CHANNELS 3 Zrotation Xrotation Yrotation
          End Site
          {
            OFFSET 1.1221 -3.69964 12.103
          }
        }
      }
    }
  }
}
MOTION
Frames: 4
Frame Time:	0.06666666
-64.5896 85.0114 -169.82 0.0 0.0 0.0 0.0256068 -6.19305e-06 0.00072885 0.00706488 8.62954e-06 0.00122384 -9.35739e-18 0.0 4.65902e-18 -3.10601e-17 3.18055e-15 1.2424e-17 -0.0 0.0 0.0 -0.0 0.0 0.0 4.83699e-17 -3.88251e-19 1.49089e-16 1.96562e-15 -3.47873e-16 9.93923e-16 6.4605e-16 -3.97569e-16 3.18055e-15 -1.92511e-14 -4.62174e-15 -3.18055e-15 -4.35025e-14 -6.7655e-15 2.22639e-14 -7.99114e-14 -9.54166e-15 3.49861e-14 -3.77691e-14 -5.1684e-15 1.27222e-14 7.73091 5.47488 0.417314 -4.28381e-14 -6.4605e-15 1.90833e-14 2.90554 0.965183 0.102902 -4.00924e-14 -6.65929e-15 2.22639e-14 10.2786 0.731801 0.0259123 -4.31363e-14 -5.1684e-15 2.54444e-14 2.22167 -0.733487 -0.20892 -4.83699e-17 -3.88251e-19 -1.49089e-16 -1.96222e-15 -1.49089e-16 -9.93923e-16 -4.17448e-15 1.19271e-15 -3.18055e-15 -1.7462e-14 7.50412e-15 2.22639e-14 -4.49909e-14 2.30524e-14 2.22639e-14 -7.03698e-14 4.13472e-14 4.29375e-14 -4.77083e-14 2.38542e-14 2.54444e-14 -7.73091 5.47488 -0.417314 -4.41302e-14 2.24627e-14 1.90833e-14 -2.90554 0.965183 -0.102902 -5.36967e-14 2.33572e-14 2.46493e-14 -10.2786 0.731801 -0.0259123 -4.31363e-14 2.22639e-14 1.27222e-14 -2.22167 -0.733487 0.20892 -2.03217e-16 0.0 -3.88251e-19 0.512295 -3.13364 -0.0420884 -0.00562798 0.123101 -0.0495521 -0.492795 3.00963 0.117359 2.03217e-16 0.0 3.88251e-19 -0.473329 -3.03453 0.0397105 0.00592201 -0.0564357 0.0521753 0.49251 3.09005 -0.118956
-64.8824 81.4705 -168.374 2.1359 -5.411 3.7811 1.46497 6.18836 0.72854 3.21853 -3.79045 0.533623 -6.78844 -1.07138 -2.13756 6.01848 -4.91859 -1.64432 -0.0 0.0 0.0 -0.0 0.0 0.0 9.97275e-15 1.73916e-14 2.5314e-15 40.6266 25.0645 -2.29814 -41.511 -48.5558 37.3928 -0.00224793 1.74024 0.244604 -4.43823e-10 -2.61298e-09 2.87421e-10 -7.67548e-10 -4.51624e-09 4.98151e-10 -4.43818e-10 -2.61298e-09 2.87417e-10 7.73091 5.47488 0.417314 -4.43824e-10 -2.61298e-09 2.87418e-10 2.90554 0.965183 0.102902 -4.43819e-10 -2.61298e-09 2.87421e-10 10.2786 0.731801 0.0259123 -4.43827e-10 -2.61299e-09 2.87424e-10 2.22167 -0.733487 -0.20892 9.9809e-15 1.73951e-14 2.34193e-15 -50.0864 19.284 11.9393 33.6208 -38.1279 -37.3244 0.0364528 -11.4879 1.61218 -1.20476e-10 -5.83441e-10 -5.87403e-10 -1.98166e-10 -9.57613e-10 -1.01773e-09 -1.20478e-10 -5.83435e-10 -5.87394e-10 -7.73091 5.47488 -0.417314 -1.20476e-10 -5.8344e-10 -5.87401e-10 -2.90554 0.965183 -0.102902 -1.20483e-10 -5.8344e-10 -5.874e-10 -10.2786 0.731801 -0.0259123 -1.2047e-10 -5.83434e-10 -5.87409e-10 -2.22167 -0.733487 0.20892 -2.03217e-16 0.0 -3.88251e-19 5.60694 -10.7519 0.176516 0.0213665 26.117 0.442073 -2.56032 -8.55241 -8.72708 2.03217e-16 0.0 3.88251e-19 3.79207 -25.0478 2.55588 0.297213 46.2147 -0.765773 0.186127 6.10914 -4.25641
-65.1071 82.1278 -164.456 1.4782 -5.3259 4.2366 2.55246 10.8025 1.3572 5.8038 -6.87612 0.967567 -12.2049 -1.36499 -3.74046 10.4209 -9.09533 -2.8952 -0.0 0.0 0.0 -0.0 0.0 0.0 1.61596e-14 1.58601e-15 1.35671e-14 74.1327 44.8048 -5.44836 -25.3198 -47.4835 98.7879 -0.00855378 2.63974 0.371256 -6.12569e-10 -3.69939e-09 2.91046e-10 -1.05962e-09 -6.39428e-09 5.05273e-10 -6.12565e-10 -3.69939e-09 2.91046e-10 7.73091 5.47488 0.417314 -6.12571e-10 -3.69939e-09 2.91043e-10 2.90554 0.965183 0.102902 -6.12564e-10 -3.69939e-09 2.91046e-10 10.2786 0.731801 0.0259123 -6.12577e-10 -3.6994e-09 2.91049e-10 2.22167 -0.733487 -0.20892 1.62434e-14 1.59416e-15 1.34677e-14 -96.0979 32.1968 24.7304 28.2672 -38.6471 -81.53 0.544052 -20.4869 3.00995 -1.25499e-10 -6.53474e-10 -6.26248e-10 -2.05868e-10 -1.07203e-09 -1.08532e-09 -1.255e-10 -6.53465e-10 -6.26235e-10 -7.73091 5.47488 -0.417314 -1.25498e-10 -6.53472e-10 -6.26242e-10 -2.90554 0.965183 -0.102902 -1.25504e-10 -6.53472e-10 -6.26244e-10 -10.2786 0.731801 -0.0259123 -1.25489e-10 -6.53462e-10 -6.26251e-10 -2.22167 -0.733487 0.20892 -2.03217e-16 0.0 -3.88251e-19 9.49236 -15.7038 0.45982 -0.374424 45.713 1.08275 -6.33457 -16.5914 -15.4976 2.03217e-16 0.0 3.88251e-19 8.70288 -42.2945 5.53857 5.81877 81.1539 -6.3511 0.221519 8.00185 -7.16034
-65.1957 83.0249 -160.084 0.9146 -5.6108 4.1868 3.10168 10.5931 1.36748 6.68627 -8.19373 1.04997 -13.5163 1.47372 -3.53026 10.6428 -11.5265 -2.53583 -0.0 0.0 0.0 -0.0 0.0 0.0 7.77157e-15 -1.31903e-13 6.14648e-14 79.3991 49.4393 -7.87114 -24.9905 -44.381 105.598 0.00455845 0.77599 0.109002 1.66306e-10 4.25425e-10 -7.0365e-10 2.8616e-10 7.3333e-10 -1.21472e-09 1.66311e-10 4.25423e-10 -7.03652e-10 7.73091 5.47488 0.417314 1.66305e-10 4.25421e-10 -7.0365e-10 2.90554 0.965183 0.102902 1.66311e-10 4.25422e-10 -7.03648e-10 10.2786 0.731801 0.0259123 1.66299e-10 4.25416e-10 -7.03644e-10 2.22167 -0.733487 -0.20892 7.84586e-15 -1.31885e-13 6.14058e-14 -106.55 31.5876 30.3648 28.1311 -36.4313 -86.726 0.679272 -22.1415 3.28806 2.62671e-10 1.07631e-09 1.26742e-09 4.34092e-10 1.76857e-09 2.19408e-09 2.62672e-10 1.07632e-09 1.26743e-09 -7.73091 5.47488 -0.417314 2.62672e-10 1.07631e-09 1.26742e-09 -2.90554 0.965183 -0.102902 2.62667e-10 1.07631e-09 1.26742e-09 -10.2786 0.731801 -0.0259123 2.62679e-10 1.07632e-09 1.26742e-09 -2.22167 -0.733487 0.20892 -2.03217e-16 0.0 -3.88251e-19 9.65277 -12.4698 1.01669 -0.409111 46.0873 1.24538 -5.74248 -16.2659 -14.0408 2.03217e-16 0.0 3.88251e-19 9.18001 -45.7104 6.51779 7.30676 82.576 -7.86164 0.167581 6.64931 -6.24704
